<svg id="Layer_1" height="512" viewBox="0 0 512 512" width="512" xmlns="http://www.w3.org/2000/svg" xmlns:xlink="http://www.w3.org/1999/xlink" data-name="Layer 1"><linearGradient id="linear-gradient" gradientUnits="userSpaceOnUse" x1="155" x2="155" y1="456" y2="72.62"><stop offset=".322" stop-color="#a163f5"/><stop offset=".466" stop-color="#b074ee"/><stop offset=".752" stop-color="#d8a1dd"/><stop offset=".898" stop-color="#efbad3"/></linearGradient><linearGradient id="linear-gradient-3" x1="290.698" x2="290.698" xlink:href="#linear-gradient" y1="456" y2="72.62"/><linearGradient id="linear-gradient-4" x1="223.262" x2="223.262" xlink:href="#linear-gradient" y1="456" y2="72.62"/><linearGradient id="linear-gradient-5" x1="256.98" x2="256.98" xlink:href="#linear-gradient" y1="456" y2="72.62"/><linearGradient id="linear-gradient-6" x1="255.997" x2="255.997" xlink:href="#linear-gradient" y1="456" y2="72.62"/><linearGradient id="linear-gradient-7" x1="256" x2="256" xlink:href="#linear-gradient" y1="456" y2="72.62"/><path d="m155 424.917a6 6 0 0 0 -6 6v4.563a6 6 0 0 0 12 0v-4.563a6 6 0 0 0 -6-6z" fill="url(#linear-gradient)"/><path d="m155 446.459a6 6 0 0 0 -6 6v28.174a6 6 0 1 0 12 0v-28.174a6 6 0 0 0 -6-6z" fill="url(#linear-gradient)"/><path d="m278.054 223.445a6 6 0 0 0 6-6 6.644 6.644 0 0 1 13.288 0 6 6 0 1 0 12 0 18.644 18.644 0 0 0 -37.288 0 6 6 0 0 0 6 6z" fill="url(#linear-gradient-3)"/><path d="m210.618 223.445a6 6 0 0 0 6-6 6.644 6.644 0 0 1 13.288 0 6 6 0 0 0 12 0 18.644 18.644 0 0 0 -37.288 0 6 6 0 0 0 6 6z" fill="url(#linear-gradient-4)"/><path d="m231.658 260.569a6 6 0 0 0 0 8.486 35.854 35.854 0 0 0 50.644 0 6 6 0 1 0 -8.485-8.486 23.838 23.838 0 0 1 -33.673 0 6 6 0 0 0 -8.486 0z" fill="url(#linear-gradient-5)"/><path d="m357.149 163.331 18.836-94.919c.029-.119.071-.239.1-.359a18.42 18.42 0 1 0 -12.179-.84 29.77 29.77 0 0 1 -58.113-6.2 55.336 55.336 0 0 0 5.757-20.062 18.459 18.459 0 1 0 -12.037-.189 43.764 43.764 0 0 1 -86.989 0 18.427 18.427 0 1 0 -12.037.189 55.339 55.339 0 0 0 5.726 20 29.77 29.77 0 0 1 -58.118 6.259 18.451 18.451 0 1 0 -12.38.792l19.185 96.309a6.151 6.151 0 0 0 2.1 3.4v53.733c-1 1.214-.831 2.473-1.021 3.779a20.368 20.368 0 0 0 20.159 23.289c.526 0 1.038-.027 1.56-.067a79.3 79.3 0 0 0 37.302 67.129v25.154l-12.714 14.872c-1.663 1.106-3.385 2.4-4.962 3.4h-20.015c-26.924 0-49.309 22.041-49.309 48.965v93.035c0 3.314 3.167 6 6.48 6h245c3.314 0 5.52-2.687 5.52-6v-93.035c0-26.924-21.425-48.965-48.35-48.965h-20.014c-1.505-1-3.18-2.183-4.763-3.243l-12.873-15.029v-25.172a79.3 79.3 0 0 0 37.276-67.093c.473.033.944.052 1.418.052a20.346 20.346 0 0 0 16.306-32.577v-48.476a5.06 5.06 0 0 0 3.149-4.131zm14.065-119.486a6.443 6.443 0 1 1 -6.443 6.443 6.449 6.449 0 0 1 6.443-6.443zm-230.428 12.885a6.443 6.443 0 1 1 6.443-6.442 6.449 6.449 0 0 1 -6.443 6.442zm158.559-33.288a6.443 6.443 0 1 1 6.443 6.443 6.45 6.45 0 0 1 -6.443-6.443zm-99.541 0a6.443 6.443 0 1 1 6.443 6.443 6.45 6.45 0 0 1 -6.447-6.443zm-21.804 212.912a8.677 8.677 0 0 1 -4.948-.473 8.309 8.309 0 0 1 -1.553-14.69 6.788 6.788 0 0 1 6.5-.339zm0-27.928a19.251 19.251 0 0 0 -9 .723v-40.049l9-.046zm40.974 145.948a72.691 72.691 0 0 0 23.346 28.165 34.647 34.647 0 0 0 -15.767 15.986c-5.149-6.233-10.676-16.058-13.967-36.581zm38.279 23.061c-5.618-2.502-22.253-11.645-30.253-35.558v-20.134a79.079 79.079 0 0 0 60-.011v20.148c-8 23.881-24.226 33.034-29.747 35.555zm13.448 18.5-6.501 20.065h-11.89l-8.3-20.24a32.31 32.31 0 0 1 13.3-5.746 31.154 31.154 0 0 1 13.39 5.922zm-69.586-24.485c.872 9.825 2.49 25.491 5.208 43.752l-7.468 6.175-23.036-10.4a80.266 80.266 0 0 1 25.296-39.526zm-61.115 123.55v-87.035c0-20.307 17-36.965 37.309-36.965h7.02c-10.252 12-17.548 25.443-21.119 40.778l-.273 1.208a6.02 6.02 0 0 0 3.374 6.848l22.246 10.052-18.781 15.536a6 6 0 0 0 -2.085 5.669 161 161 0 0 0 14.546 43.909zm55.806 0a143.716 143.716 0 0 1 -15.655-42.582l28.36-23.453c4.175 24.726 9.3 47.035 15.3 66.035zm22.886-78.248q-.855-5.568-1.573-10.783c2.061 2.508 4.045 4.5 5.805 6.272.813.817 1.589 1.6 2.311 2.37a6 6 0 0 0 10.39-4.091 14.52 14.52 0 0 1 .39-2.97l6.03 14.528-11.516 52.858a565.527 565.527 0 0 1 -11.837-58.184zm19.747 78.248 14.7-67h10.4l12.269 67zm36.287-73.062 3.717-11.341a5.991 5.991 0 0 0 10.377 4.014c.722-.775 1.5-1.552 2.311-2.37 1.726-1.735 3.669-3.69 5.688-6.131q-.714 5.154-1.552 10.642a572.071 572.071 0 0 1 -11.287 56.084zm61.924-50.938c20.309 0 36.35 16.658 36.35 36.965v87.035h-41.277a160.987 160.987 0 0 0 14.547-43.907 6 6 0 0 0 -2.086-5.666l-18.772-15.527 22.239-10.053a6 6 0 0 0 3.372-6.828l-.273-1.243c-3.571-15.332-10.867-28.776-21.12-40.776zm-23.8.457a80.276 80.276 0 0 1 25.289 39.523l-23.027 10.408-7.478-6.185c2.743-18.403 4.354-33.976 5.219-43.746zm20.956 80.962a143.665 143.665 0 0 1 -15.652 42.581h-28.008c6-19 11.128-41.308 15.3-66.035zm-32.34-90.475c-3.257 20.318-8.708 30.151-13.813 36.394a33.649 33.649 0 0 0 -15.513-15.859 73.117 73.117 0 0 0 22.948-28.095zm22.534-113.591a67 67 0 1 1 -134 0v-79.353l134-.692zm16.775-12.472a8.534 8.534 0 0 1 -4.775.5v-15.467a6.365 6.365 0 0 1 6.367.277 8.407 8.407 0 0 1 -1.592 14.69zm-4.775-27.468v-40.171l6-.03v40.193a19.2 19.2 0 0 0 -6 .008zm10.382-51.98-180.773.848-2.466-12.281h185.521zm4.66-23.433h-190.277l-7.89-39.976a42.044 42.044 0 0 0 62.48-19.008 55.645 55.645 0 0 0 81.3.025 42.055 42.055 0 0 0 62.245 19.142z" fill="url(#linear-gradient-6)"/><path d="m256 96.925a16.048 16.048 0 1 0 16.048 16.047 16.065 16.065 0 0 0 -16.048-16.047zm0 20.1a4.048 4.048 0 1 1 4.048-4.048 4.052 4.052 0 0 1 -4.048 4.043z" fill="url(#linear-gradient-7)"/></svg>