<?xml version="1.0" encoding="UTF-8"?>
<svg xmlns="http://www.w3.org/2000/svg" xmlns:xlink="http://www.w3.org/1999/xlink" id="Layer_1" data-name="Layer 1" viewBox="0 0 512 512" width="512" height="512"><defs><linearGradient id="linear-gradient" x1="276.213" y1="456" x2="276.213" y2="72.62" gradientUnits="userSpaceOnUse"><stop offset="0.322" stop-color="#a163f5"/><stop offset="0.466" stop-color="#b074ee"/><stop offset="0.752" stop-color="#d8a1dd"/><stop offset="0.898" stop-color="#efbad3"/></linearGradient><linearGradient id="linear-gradient-2" x1="109.843" y1="456" x2="109.843" y2="72.62" xlink:href="#linear-gradient"/><linearGradient id="linear-gradient-3" x1="456.116" y1="456" x2="456.116" y2="72.62" xlink:href="#linear-gradient"/><linearGradient id="linear-gradient-4" x1="369.548" y1="456" x2="369.548" y2="72.62" xlink:href="#linear-gradient"/><linearGradient id="linear-gradient-5" x1="256.078" y1="456" x2="256.078" y2="72.62" xlink:href="#linear-gradient"/><linearGradient id="linear-gradient-7" x1="381" y1="456" x2="381" y2="72.62" xlink:href="#linear-gradient"/><linearGradient id="linear-gradient-9" x1="256" y1="456" x2="256" y2="72.62" xlink:href="#linear-gradient"/></defs><path d="M281.991,455H270.436a6,6,0,1,0,0,12h11.555a6,6,0,0,0,0-12Z" style="fill:url(#linear-gradient)"/><path d="M115.651,458H104.034a6,6,0,1,0,0,12h11.617a6,6,0,0,0,0-12Z" style="fill:url(#linear-gradient-2)"/><path d="M461.924,458H450.307a6,6,0,0,0,0,12h11.617a6,6,0,0,0,0-12Z" style="fill:url(#linear-gradient-3)"/><path d="M363.739,330h11.617a6,6,0,0,0,0-12H363.739a6,6,0,0,0,0,12Z" style="fill:url(#linear-gradient-4)"/><path d="M252.5,128.433A48.532,48.532,0,0,0,301,80.091V48h1.155a6.209,6.209,0,0,0,6-6.24A31.579,31.579,0,0,0,276.714,10.2a31,31,0,0,1-8.977-1.408C261.17,6.8,256.015,5.758,252.264,5.758A48.3,48.3,0,0,0,204,54.069V80.091A48.532,48.532,0,0,0,252.5,128.433Zm36.5-74.8A11.244,11.244,0,0,1,283.445,48H289Zm-73,.441a36.316,36.316,0,0,1,36.264-36.341c2.461,0,6.819.906,12.027,2.487a43.071,43.071,0,0,0,12.443,2.105A19.4,19.4,0,0,1,295.208,36H251.185a14.759,14.759,0,0,0-14.938,14.707A13.343,13.343,0,0,1,222.724,64H216ZM216,76h6.724a25.356,25.356,0,0,0,25.523-25.293A2.753,2.753,0,0,1,251.185,48h19.881C272.656,57,280,64.182,289,66.516V80.091a36.5,36.5,0,0,1-73,0Z" style="fill:url(#linear-gradient-5)"/><path d="M270.436,179h11.555a6,6,0,0,0,0-12H270.436a6,6,0,0,0,0,12Z" style="fill:url(#linear-gradient)"/><path d="M381,36.77a6,6,0,0,0-6,6v3.563a6,6,0,0,0,12,0V42.77A6,6,0,0,0,381,36.77Z" style="fill:url(#linear-gradient-7)"/><path d="M381,58.311a6,6,0,0,0-6,6V87.543a6,6,0,0,0,12,0V64.311A6,6,0,0,0,381,58.311Z" style="fill:url(#linear-gradient-7)"/><path d="M458.246,424H441.232C462.053,418,477,399.418,477,376.938V338h2.105a6.031,6.031,0,0,0,6-6.036,31.492,31.492,0,0,0-31.441-31.459,30.888,30.888,0,0,1-8.977-1.357c-6.566-1.993-11.8-3.008-15.551-3.008A48.1,48.1,0,0,0,401.5,304.9c-7.429-15.021-20.02-21.9-29.824-21.9H354.664C375.485,278,391,258.561,391,236.082V197h1.537a5.97,5.97,0,0,0,6-5.965A31.461,31.461,0,0,0,367.1,159.613c-.032,0-.064,0-.1,0V110h97.8a6.346,6.346,0,0,0,5.015-2.319,6.033,6.033,0,0,0-.25-7.759l-31.78-35.295,31.654-35.149a6.522,6.522,0,0,0,1.048-1.521A6.237,6.237,0,0,0,465.105,19H367.358a14.366,14.366,0,0,0-4.006-9.335,13.525,13.525,0,0,0-10.123-3.928,13.883,13.883,0,0,0-13.229,14v135.6a48.256,48.256,0,0,0-27.323,10.207C310.292,146.762,294.481,132,275.086,132H223.672a38.574,38.574,0,0,0-36.43,26.867q-1.135-.253-2.26-.594c-6.567-1.993-11.844-3-15.595-3A48.439,48.439,0,0,0,121,203.62v32.462C121,258.561,136.515,278,157.336,283H143.411a38.327,38.327,0,0,0-32.292,17.771,31.6,31.6,0,0,0-3.727-.256,30.935,30.935,0,0,1-8.978-1.362c-6.566-1.993-11.559-3.011-15.312-3.011A48.187,48.187,0,0,0,35,344.477v32.461C35,399.418,49.947,418,70.768,424H56.843A37.724,37.724,0,0,0,19,461.946v38.326A5.478,5.478,0,0,0,24.644,506H487.356A5.478,5.478,0,0,0,493,500.272V466.62C493,447.2,477.7,424,458.246,424ZM367,31h84.626L425.249,60.443a6.159,6.159,0,0,0,0,8.151L451.626,98H367Zm98,313.035A10.846,10.846,0,0,1,460.4,338H465Zm-72,.442a36.3,36.3,0,0,1,36.239-36.342c2.462,0,6.808.907,12.013,2.487a42.794,42.794,0,0,0,12.438,1.9A19.215,19.215,0,0,1,472.158,326H428.135A14.76,14.76,0,0,0,413.2,340.708,13.343,13.343,0,0,1,399.674,354H393ZM393,366h6.674A25.355,25.355,0,0,0,425.2,340.708,2.753,2.753,0,0,1,428.135,338h19.881A25.087,25.087,0,0,0,465,356.923v20.015a36,36,0,1,1-72,0Zm-21.322-71c8.71,0,16.714,8.992,20.573,18.452A47.883,47.883,0,0,0,381,344.477v32.461A48.192,48.192,0,0,0,381.83,387H294.2a48.653,48.653,0,0,0,2.982-11.76,30.634,30.634,0,0,0-1.33-61.24h-5.13a22.949,22.949,0,0,1,22.733-19Zm-77.37,31h1.547A18.591,18.591,0,0,1,297,363.135V342.516C297,336.641,296.355,331,294.308,326ZM379,203.178c-2-1.381-4.229-3.178-5.173-6.178H379ZM352,19.5a1.5,1.5,0,0,1,3,0V157.382q-1.555-.422-3-.759ZM306,203.62a36.48,36.48,0,0,1,36.455-36.342c2.461,0,6.915.906,12.122,2.487a43.039,43.039,0,0,0,12.491,1.83A19.218,19.218,0,0,1,385.59,185H341.566a15.188,15.188,0,0,0-14.937,15.207A13.772,13.772,0,0,1,313.106,214H306ZM306,226h7.106a25.784,25.784,0,0,0,25.523-25.793A3.184,3.184,0,0,1,341.566,197h19.882A24.327,24.327,0,0,0,379,216.066v20.016a36.5,36.5,0,0,1-73,0Zm24.472,57H313.458a34.993,34.993,0,0,0-33.314,23.853A45.164,45.164,0,0,0,252.255,297H246.5a45.094,45.094,0,0,0-18.429,4.134A37.749,37.749,0,0,0,195.452,283H181.528c17.026-4.089,30.589-17.834,34.97-35h79C299.883,265.166,313.446,278.911,330.472,283Zm-57.7,48.66a5.824,5.824,0,0,0-4.219-3.851,5.922,5.922,0,0,0-5.509,1.694A66.112,66.112,0,0,1,216.437,349H213v-6.484A33.742,33.742,0,0,1,246.5,309h5.752C270.583,309,285,324.188,285,342.516v6.316C279,346.218,274.031,335.173,272.773,331.66ZM285,361.234v8.751A32.667,32.667,0,0,1,252.255,403H246.5c-18.327,0-33.5-14.688-33.5-33.015V361h3.437A78.423,78.423,0,0,0,265.3,343.651a52.413,52.413,0,0,0,3.371,5.862C274.434,357.658,281,360.546,285,361.234ZM206,203.178A8.949,8.949,0,0,1,200.691,197H206ZM223.672,144h51.414C289.532,144,301,156.024,301,170.47v8.169a47.917,47.917,0,0,0-7,24.981V236H218V197h1.4a5.97,5.97,0,0,0,6-5.965,31.465,31.465,0,0,0-25.86-30.917A26.425,26.425,0,0,1,223.672,144ZM133,203.62a36.422,36.422,0,0,1,36.387-36.342c2.461,0,6.88.906,12.088,2.487a42.926,42.926,0,0,0,12.474,1.83A19.2,19.2,0,0,1,212.453,185H168.43a15.188,15.188,0,0,0-14.938,15.207A13.771,13.771,0,0,1,139.969,214H133Zm0,32.462V226h6.969a25.783,25.783,0,0,0,25.523-25.793A3.184,3.184,0,0,1,168.43,197h19.882A24.488,24.488,0,0,0,206,216.066v20.016a36.5,36.5,0,0,1-73,0ZM143.411,295h52.041a25.965,25.965,0,0,1,22.416,12.579,46.258,46.258,0,0,0-10.7,12.862A5.855,5.855,0,0,0,202.22,318H190.6a6,6,0,0,0,0,12H202.22c.325,0,.508-.223.819-.272A43.866,43.866,0,0,0,201,342.516v27.469A44.8,44.8,0,0,0,204.555,387H130.17a48.192,48.192,0,0,0,.83-10.062V338h1.832a6.031,6.031,0,0,0,6-6.036,31.391,31.391,0,0,0-15.809-27.225A26.288,26.288,0,0,1,143.411,295ZM47,344.477a36.18,36.18,0,0,1,36.1-36.342c2.462,0,6.739.907,11.945,2.487a42.528,42.528,0,0,0,12.4,1.9A19.172,19.172,0,0,1,125.885,326H81.862a14.76,14.76,0,0,0-14.938,14.708A13.343,13.343,0,0,1,53.4,354H47ZM119,338v6.035A11.23,11.23,0,0,1,114.122,338ZM47,376.938V366h6.4a25.355,25.355,0,0,0,25.523-25.292A2.753,2.753,0,0,1,81.862,338h19.881A23.8,23.8,0,0,0,119,356.923v20.015a36,36,0,1,1-72,0ZM135,494H31V461.946A25.711,25.711,0,0,1,56.843,436h52.041A25.943,25.943,0,0,1,135,461.946Zm166,0H197V458.226C197,443.779,209.226,432,223.672,432h51.414A26.009,26.009,0,0,1,301,458.226Zm64-35.143V494H313V458.226A38.023,38.023,0,0,0,275.086,420H223.672C202.609,420,185,437.163,185,458.226V494H147V461.946A37.956,37.956,0,0,0,108.884,424H94.959a50.905,50.905,0,0,0,30.953-25h85.824A44.78,44.78,0,0,0,246.5,415h5.752a44.78,44.78,0,0,0,34.768-16h99.065a50.905,50.905,0,0,0,30.953,25H400.027A34.863,34.863,0,0,0,365,458.857ZM481,494H377V458.857A22.85,22.85,0,0,1,400.027,436h58.219c11.9,0,22.754,17.14,22.754,30.62Z" style="fill:url(#linear-gradient-9)"/></svg>
