<?xml version="1.0" encoding="UTF-8"?>
<svg xmlns="http://www.w3.org/2000/svg" xmlns:xlink="http://www.w3.org/1999/xlink" id="Layer_1" data-name="Layer 1" viewBox="0 0 512 512" width="512" height="512"><defs><linearGradient id="linear-gradient" x1="271.373" y1="456" x2="271.373" y2="72.62" gradientUnits="userSpaceOnUse"><stop offset="0.322" stop-color="#a163f5"/><stop offset="0.466" stop-color="#b074ee"/><stop offset="0.752" stop-color="#d8a1dd"/><stop offset="0.898" stop-color="#efbad3"/></linearGradient><linearGradient id="linear-gradient-2" x1="144.843" y1="456" x2="144.843" y2="72.62" xlink:href="#linear-gradient"/><linearGradient id="linear-gradient-3" x1="408.195" y1="456" x2="408.195" y2="72.62" xlink:href="#linear-gradient"/><linearGradient id="linear-gradient-4" x1="255.98" y1="456" x2="255.98" y2="72.62" xlink:href="#linear-gradient"/><linearGradient id="linear-gradient-5" x1="256" y1="456" x2="256" y2="72.62" xlink:href="#linear-gradient"/><linearGradient id="linear-gradient-6" x1="99" y1="456" x2="99" y2="72.62" xlink:href="#linear-gradient"/></defs><path d="M266.979,245h8.788a6,6,0,1,0,0-12h-8.788a6,6,0,0,0,0,12Z" style="fill:url(#linear-gradient)"/><path d="M149.26,236h-8.835a6,6,0,0,0,0,12h8.835a6,6,0,0,0,0-12Z" style="fill:url(#linear-gradient-2)"/><path d="M397.777,242a6,6,0,0,0,6,6h8.835a6,6,0,1,0,0-12h-8.835A6,6,0,0,0,397.777,242Z" style="fill:url(#linear-gradient-3)"/><path d="M476,445.618V206.828C476,185.017,458.276,167,436.465,167H426V146.781a6.1,6.1,0,0,0,5.74-6,25.4,25.4,0,0,0-25.379-25.348,22.172,22.172,0,0,1-6.425-.964,45.276,45.276,0,0,0-12.253-2.347,37.956,37.956,0,0,0-20.544,5.991c-4.834-8.68-13.01-16.117-23.162-16.117h-5.072A37.807,37.807,0,0,0,360,67.891V39.655a6.176,6.176,0,0,0,5.821-6A25.369,25.369,0,0,0,340.482,8.31a22.037,22.037,0,0,1-6.405-.963C328.949,5.79,325.014,5,322.018,5A38.088,38.088,0,0,0,284,43.2V67.891C284,82.823,292.253,96,304.771,102H299.7a28.207,28.207,0,0,0-26.344,18.286,38.037,38.037,0,0,0-37.661-4.112A30.553,30.553,0,0,0,209.952,102h-2.723C219.747,96,228,82.823,228,67.891V39.655c4-.105,5.983-2.75,5.983-6A25.3,25.3,0,0,0,208.725,8.31a21.765,21.765,0,0,1-6.364-.963C197.231,5.79,193.155,5,190.159,5A38.208,38.208,0,0,0,152,43.2V67.891A37.807,37.807,0,0,0,173.1,102h-2.722a30.662,30.662,0,0,0-25.29,13.5c-.695-.057-1.4-.081-2.1-.081a22.036,22.036,0,0,1-6.411-.957,45.538,45.538,0,0,0-12.305-2.343A38.3,38.3,0,0,0,86,150.329V167H79.677A39.938,39.938,0,0,0,40,206.828v238.31a30.027,30.027,0,0,0-20.383,9.034A30.971,30.971,0,0,0,41.568,507H470.461a30.977,30.977,0,0,0,30.911-30.979C501.356,460.88,490,448.256,476,445.618ZM361,150.329a26.436,26.436,0,0,1,26.439-26.2c.822,0,3.557.179,9,1.83a34.2,34.2,0,0,0,9.9,1.588c5.2,0,9.721,2.456,11.921,7.456H386.914a12.539,12.539,0,0,0-12.8,12.475A8.588,8.588,0,0,1,365.269,156H361ZM409.815,209h-5.073a36.371,36.371,0,0,0,3.586-2H437v28.37a41.327,41.327,0,0,0-6.663-14.384C424.731,213.314,417.428,209,409.815,209ZM426,243.222V257.96l-77-1.276V237.318A16.656,16.656,0,0,1,365.537,221h44.278C417.975,221,426,233.8,426,243.222Zm-12.122-96.437v.042l-.032-.042ZM361,168h4.269a20.6,20.6,0,0,0,20.848-20.525c0-.44.358-.475.8-.475h13.965A19.55,19.55,0,0,0,414,160.863v14.154a26.5,26.5,0,0,1-53,0ZM348.04,39.7l-.032-.043h.032ZM296,43.2A26.076,26.076,0,0,1,322.02,17c.822,0,3.23.178,8.667,1.829a33.964,33.964,0,0,0,9.851,1.652A12.389,12.389,0,0,1,352.415,28H321.076a12.54,12.54,0,0,0-12.8,12.475A8.587,8.587,0,0,1,299.431,49H296Zm0,24.689V61h3.431a20.6,20.6,0,0,0,20.848-20.525c0-.44.358-.475.8-.475h13.965A21.252,21.252,0,0,0,348,53.737V67.891a26,26,0,1,1-52,0ZM299.7,114h44.278c5.764,0,11.073,5.978,13.907,12.428a38.365,38.365,0,0,0-5.13,8.427c.009-.133.02-.493.02-.628a6.2,6.2,0,0,0-6-6.227h-8.835a6,6,0,0,0,0,12h8.835a5.326,5.326,0,0,0,4.441-2.014A39.627,39.627,0,0,0,349,150.329V167H304.622a24.186,24.186,0,0,0,6.453-16.515A24.555,24.555,0,0,0,286.312,126H284.23A16.171,16.171,0,0,1,299.7,114Zm-13.143,23.631a12.77,12.77,0,0,1,12.522,12.751A12.533,12.533,0,0,1,289,162.856V151.024A37.834,37.834,0,0,0,286.556,137.631ZM288.177,179h61.065a37.311,37.311,0,0,0,5.652,16H280.681A37.974,37.974,0,0,0,288.177,179Zm78.837,28a37.332,37.332,0,0,0,3.595,2h-5.072C350.021,209,337,221.8,337,237.318v25.267a6.147,6.147,0,0,0,6.1,5.969L431.854,270h.1a6.023,6.023,0,0,0,4.23-1.692,6.249,6.249,0,0,0,.816-.991V421H79V268.889a5.334,5.334,0,0,0,1.046.111H168.6a6.718,6.718,0,0,0,6.4-6.415V239.668C175,222.856,160.925,209,144.114,209h-2.723a37.332,37.332,0,0,0,3.595-2h78.769A30.953,30.953,0,0,0,201,236.838v25.747c0,3.313,2.612,6.415,5.925,6.415H295c3.314,0,6-3.1,6-6.415V236.838A30.994,30.994,0,0,0,278.179,207ZM86,257V239.668A18.7,18.7,0,0,1,104.535,221h39.579A19.008,19.008,0,0,1,163,239.668V257Zm145.414-39h39.1C280.71,218,289,226.644,289,236.838V257H213V236.838C213,226.644,221.219,218,231.414,218ZM277,171.449a26,26,0,1,1-52,0V164h.911a60.927,60.927,0,0,0,36.694-12.274c3.314,5.64,8.395,11.155,14.395,12.581ZM251,125a26.031,26.031,0,0,1,26,26.01c-3.045-2.757-5.76-8.3-6.694-10.9a6,6,0,0,0-4.343-3.851,5.942,5.942,0,0,0-5.571,1.512A48.782,48.782,0,0,1,225.911,152H225v-.976A26.03,26.03,0,0,1,251,125ZM216.364,39.7l-.032-.043h.032ZM164,43.2A26.214,26.214,0,0,1,190.182,17c.822,0,3.31.178,8.748,1.829a34.235,34.235,0,0,0,9.891,1.652A12.444,12.444,0,0,1,220.739,28H189.4a12.539,12.539,0,0,0-12.8,12.475A8.588,8.588,0,0,1,167.755,49H164Zm0,24.689V61h3.755A20.6,20.6,0,0,0,188.6,40.475c0-.44.357-.475.8-.475h13.965A20.778,20.778,0,0,0,216,53.737V67.891a26,26,0,1,1-52,0ZM170.373,114h39.579a18.541,18.541,0,0,1,15.658,8.686,36.979,36.979,0,0,0-6.388,7.184A6.184,6.184,0,0,0,215.1,128h-8.835a6,6,0,0,0,0,12h8.175A44.947,44.947,0,0,0,213,151.024V167H163V146.781a5.953,5.953,0,0,0,5.563-6A25.494,25.494,0,0,0,157.189,119.7,18.317,18.317,0,0,1,170.373,114Zm-7.615,65H213.78a36.816,36.816,0,0,0,7.62,16H157.106A37.311,37.311,0,0,0,162.758,179ZM98,150.329a26.285,26.285,0,0,1,26.263-26.2c.822,0,3.351.179,8.789,1.83a34.317,34.317,0,0,0,9.911,1.588c5.2,0,9.737,2.456,11.937,7.456H123.562a12.539,12.539,0,0,0-12.8,12.475A8.588,8.588,0,0,1,101.917,156H98Zm52.526-3.544v.043l-.032-.043ZM98,168h3.917a20.6,20.6,0,0,0,20.848-20.525c0-.44.358-.475.8-.475h13.965A20.049,20.049,0,0,0,151,160.863v14.154a26.5,26.5,0,0,1-53,0Zm5.672,39a36.47,36.47,0,0,0,3.585,2h-2.722A30.541,30.541,0,0,0,79,222.934V207ZM52,206.828A27.925,27.925,0,0,1,79.677,179h6.556a37.75,37.75,0,0,0,5.49,16H73.191A6.137,6.137,0,0,0,67,200.965V427.232A5.973,5.973,0,0,0,73.191,433H442.95a5.849,5.849,0,0,0,6.05-5.768V200.965A6.013,6.013,0,0,0,442.95,195H420.277a37.75,37.75,0,0,0,5.49-16h10.7A27.8,27.8,0,0,1,464,206.828V445H320.987a17.49,17.49,0,0,0-17.277,17.5,5.477,5.477,0,0,1-5.276,5.5h-90.21a5.478,5.478,0,0,1-5.274-5.5A17.49,17.49,0,0,0,185.673,445H52ZM470.432,495H41.568a19,19,0,0,1,0-38H185.673a5.479,5.479,0,0,1,5.277,5.5A17.488,17.488,0,0,0,208.222,480h90.213a17.488,17.488,0,0,0,17.275-17.5,5.48,5.48,0,0,1,5.281-5.5H470.432a19,19,0,0,1,0,38Z" style="fill:url(#linear-gradient-4)"/><path d="M181.442,344.506A74.558,74.558,0,1,0,256,269.949,74.642,74.642,0,0,0,181.442,344.506Zm48.084-56.661a73.965,73.965,0,0,0-9.935,15.6,61.131,61.131,0,0,1-6.011-4.861A62.771,62.771,0,0,1,229.526,287.845ZM205.583,307.9a72.309,72.309,0,0,0,9.548,7.262A94.89,94.89,0,0,0,211.038,339h-17.3A60.935,60.935,0,0,1,205.583,307.9ZM193.736,351h17.3a99.288,99.288,0,0,0,4.093,23.345,74.188,74.188,0,0,0-9.549,7.509A63.68,63.68,0,0,1,193.736,351Zm19.844,39.431a61.277,61.277,0,0,1,6.011-4.861,73.972,73.972,0,0,0,9.935,15.6A62.783,62.783,0,0,1,213.58,390.431ZM250,403.7a58.175,58.175,0,0,1-19.939-24.1A63.249,63.249,0,0,1,250,374.347Zm0-41.382a75.623,75.623,0,0,0-24.046,6.224A87.4,87.4,0,0,1,223.061,351H250ZM250,339H223.061a81.478,81.478,0,0,1,2.893-18.033A74.991,74.991,0,0,0,250,326.7Zm0-24.335a63.251,63.251,0,0,1-19.938-5.249A58.17,58.17,0,0,1,250,285.315Zm32.474,86.5a73.921,73.921,0,0,0,9.856-15.435,61.6,61.6,0,0,1,5.924,4.856A62.787,62.787,0,0,1,282.474,401.168Zm23.81-19.249a72.441,72.441,0,0,0-9.464-7.283A100.8,100.8,0,0,0,300.962,351h17.3A63.538,63.538,0,0,1,306.284,381.919ZM318.264,339h-17.3a95.332,95.332,0,0,0-4.142-24.006,72.616,72.616,0,0,0,9.464-7.283A61.223,61.223,0,0,1,318.264,339Zm-20.011-40.577a61.319,61.319,0,0,1-5.923,4.856,73.914,73.914,0,0,0-9.856-15.434A62.786,62.786,0,0,1,298.253,298.423ZM262,285.315A58.152,58.152,0,0,1,281.9,309.324,62.319,62.319,0,0,1,262,314.659Zm0,41.378a74.065,74.065,0,0,0,24.021-5.816A81.933,81.933,0,0,1,288.939,339H262ZM262,351h26.939a87.9,87.9,0,0,1-2.918,17.629A74.721,74.721,0,0,0,262,362.319Zm0,23.353a62.345,62.345,0,0,1,19.895,5.335A58.145,58.145,0,0,1,262,403.7Z" style="fill:url(#linear-gradient-5)"/><path d="M99,287.864a6,6,0,0,0-6,6v4.563a6,6,0,0,0,12,0v-4.563A6,6,0,0,0,99,287.864Z" style="fill:url(#linear-gradient-6)"/><path d="M99,312.406a6,6,0,0,0-6,6v67.213a6,6,0,0,0,12,0V318.406A6,6,0,0,0,99,312.406Z" style="fill:url(#linear-gradient-6)"/></svg>
